#!OML:ASF H:\BabyWalks\Project 1\Capture day 1\Session 1\baby.ASF
:FULLY-SPECIFIED
:DEGREES
522
root 20.8275 17.4993 -9.431 3.50858 48.3169 -6.09935
lowerback 21.5497 0.433735 3.98412
upperback 4.78414 1.85448 2.93126
thorax -6.78818 0.920043 0.395359
lowerneck -3.00394 -1.81542 6.94269
upperneck -6.44945 -2.79068 -6.26081
head -1.74819 -1.44532 -3.24587
rclavicle -2.74323e-014 -7.95139e-015
rhumerus -55.3245 11.4992 -86.7335
rradius 44.9824
rwrist 2.52317
rhand -14.9202 -17.8543
rfingers 7.12502
rthumb 11.2417 -47.5331
lclavicle -2.74323e-014 -7.95139e-015
lhumerus -57.791 -7.80215 88.2384
lradius 40.2872
lwrist -12.0127
lhand 7.00317 10.5509
lfingers 7.12502
lthumb 32.2787 37.7006
rfemur -15.8751 7.82875 27.2628
rtibia 31.8693
rfoot -21.5109 2.86508
rtoes 9.53589
lfemur -31.8203 4.45712 -8.47939
ltibia 61.6473
lfoot -19.5014 -26.0923
ltoes -10.4498
523
root 20.9531 17.5238 -9.32389 3.61833 48.007 -6.08596
lowerback 21.5005 0.53647 4.04545
upperback 4.76713 1.98657 2.82088
thorax -6.77193 0.980755 0.206631
lowerneck -3.03938 -1.81807 6.97248
upperneck -6.48648 -2.79866 -6.28739
head -1.75589 -1.44998 -3.26119
rclavicle -2.34566e-014 1.03368e-014
rhumerus -54.9878 11.6347 -86.5073
rradius 45.9206
rwrist 1.46711
rhand -17.1351 -17.8787
rfingers 7.12502
rthumb 9.10496 -47.6622
lclavicle -2.34566e-014 1.03368e-014
lhumerus -58.3764 -7.5991 88.3679
lradius 39.7548
lwrist -12.0638
lhand 7.81812 10.7357
lfingers 7.12502
lthumb 33.0541 37.7245
rfemur -14.9361 7.86577 27.2808
rtibia 30.969
rfoot -21.4748 3.20089
rtoes 9.73593
lfemur -32.518 4.24265 -8.95699
ltibia 60.0168
lfoot -20.0803 -25.332
ltoes -10.5742
524
root 21.0805 17.5499 -9.21544 3.70902 47.7422 -6.09808
lowerback 21.4395 0.618516 4.12024
upperback 4.74644 2.09473 2.71483
thorax -6.75293 1.02988 0.0217909
lowerneck -3.06384 -1.82189 6.99594
upperneck -6.53076 -2.8073 -6.30491
head -1.76765 -1.4548 -3.27209
rclavicle 2.38542e-015 -5.64548e-014
rhumerus -54.7155 11.8049 -86.3097
rradius 46.9426
rwrist 0.317852
rhand -19.2021 -17.8509
rfingers 7.12502
rthumb 7.11007 -47.7115
lclavicle 2.38542e-015 -5.64548e-014
lhumerus -58.9774 -7.42678 88.4788
lradius 39.3815
lwrist -12.0532
lhand 8.4654 10.8853
lfingers 7.12502
lthumb 33.6694 37.7419
rfemur -13.9292 7.88934 27.3125
rtibia 29.9324
rfoot -21.341 3.48674
rtoes 9.77612
lfemur -33.1526 3.98292 -9.40664
ltibia 58.1875
lfoot -20.5414 -24.5165
ltoes -10.5896
525
root 21.2096 17.5778 -9.10559 3.78553 47.516 -6.12765
lowerback 21.3678 0.683712 4.20311
upperback 4.72049 2.18264 2.61162
thorax -6.73364 1.06916 -0.158723
lowerneck -3.07376 -1.82679 7.00009
upperneck -6.57523 -2.81499 -6.29464
head -1.78096 -1.45893 -3.26951
rclavicle -3.57812e-015 -7.95139e-016
rhumerus -54.5083 12.0019 -86.1347
rradius 48.0352
rwrist -0.900361
rhand -21.064 -17.7621
rfingers 7.12502
rthumb 5.31259 -47.6755
lclavicle -3.57812e-015 -7.95139e-016
lhumerus -59.5991 -7.29539 88.582
lradius 39.1693
lwrist -11.9438
lhand 8.94962 11.0049
lfingers 7.12502
lthumb 34.1294 37.7598
rfemur -12.8724 7.89807 27.3546
rtibia 28.8049
rfoot -21.1289 3.7227
rtoes 9.61732
lfemur -33.7219 3.68575 -9.82841
ltibia 56.1897
lfoot -20.9016 -23.6752
ltoes -10.5552
526
root 21.3402 17.6068 -8.9945 3.85787 47.3225 -6.16763
lowerback 21.2842 0.736296 4.28744
upperback 4.68785 2.2542 2.51081
thorax -6.71528 1.10048 -0.332699
lowerneck -3.0736 -1.8325 6.99222
upperneck -6.61208 -2.82191 -6.26497
head -1.79279 -1.46255 -3.25777
rclavicle 8.48811e-014 9.93923e-015
rhumerus -54.3614 12.2153 -85.9736
rradius 49.1829
rwrist -2.15925
rhand -22.7045 -17.5948
rfingers 7.12502
rthumb 3.7285 -47.542
lclavicle 8.48811e-014 9.93923e-015
lhumerus -60.2361 -7.20929 88.6831
lradius 39.1115
lwrist -11.7112
lhand 9.30169 11.0977
lfingers 7.12502
lthumb 34.4637 37.7773
rfemur -11.7751 7.89497 27.404
rtibia 27.5922
rfoot -20.8384 3.9088
rtoes 9.30729
lfemur -34.2306 3.36449 -10.2229
ltibia 54.0382
lfoot -21.1579 -22.8378
ltoes -10.538
527
root 21.472 17.6364 -8.88226 3.92542 47.156 -6.21948
lowerback 21.1883 0.779332 4.37353
upperback 4.64999 2.3133 2.41179
thorax -6.69615 1.12574 -0.501983
lowerneck -3.06873 -1.83333 6.96339
upperneck -6.63592 -2.81966 -6.20095
head -1.79926 -1.46156 -3.23005
rclavicle 4.59193e-014 -3.37934e-014
rhumerus -54.2654 12.4305 -85.8172
rradius 50.3686
rwrist -3.42848
rhand -24.0967 -17.3397
rfingers 7.12502
rthumb 2.38393 -47.3061
lclavicle 4.59193e-014 -3.37934e-014
lhumerus -60.8812 -7.17122 88.7848
lradius 39.2001
lwrist -11.3386
lhand 9.55222 11.1738
lfingers 7.12502
lthumb 34.7015 37.7991
rfemur -10.6395 7.88191 27.4638
rtibia 26.2969
rfoot -20.4657 4.04701
rtoes 8.85479
lfemur -34.6787 3.03083 -10.5859
ltibia 51.7534
lfoot -21.3144 -22.0458
ltoes -10.542
528
root 21.6047 17.6661 -8.76902 4.00204 47.0108 -6.26927
lowerback 21.0799 0.816258 4.44758
upperback 4.60503 2.36127 2.31358
thorax -6.67864 1.14569 -0.660212
lowerneck -3.08985 -1.82649 6.91438
upperneck -6.61151 -2.80561 -6.10744
head -1.78322 -1.45498 -3.18832
rclavicle 6.2816e-014 -2.62396e-014
rhumerus -54.2151 12.644 -85.6602
rradius 51.577
rwrist -4.67893
rhand -25.2151 -17.0133
rfingers 7.12502
rthumb 1.30383 -46.9891
lclavicle 6.2816e-014 -2.62396e-014
lhumerus -61.5285 -7.17835 88.8893
lradius 39.4226
lwrist -10.8197
lhand 9.73767 11.2451
lfingers 7.12502
lthumb 34.8775 37.8296
rfemur -9.47272 7.85819 27.5248
rtibia 24.9233
rfoot -20.0267 4.15157
rtoes 8.41259
lfemur -35.0736 2.69303 -10.9261
ltibia 49.3629
lfoot -21.3923 -21.3127
ltoes -10.6202
529
root 21.7379 17.6948 -8.65478 4.07451 46.8773 -6.32876
lowerback 20.9639 0.851004 4.51398
upperback 4.55618 2.40454 2.21749
thorax -6.66161 1.16344 -0.810229
lowerneck -3.12142 -1.81526 6.85502
upperneck -6.55885 -2.78465 -5.99715
head -1.75499 -1.44507 -3.1389
rclavicle 3.37934e-014 1.19271e-014
rhumerus -54.2003 12.844 -85.4992
rradius 52.7893
rwrist -5.88545
rhand -26.0574 -16.6167
rfingers 7.12502
rthumb 0.490286 -46.5959
lclavicle 3.37934e-014 1.19271e-014
lhumerus -62.1673 -7.23319 88.9957
lradius 39.7616
lwrist -10.1678
lhand 9.88286 11.3118
lfingers 7.12502
lthumb 35.0152 37.8643
rfemur -8.27149 7.83086 27.5982
rtibia 23.4733
rfoot -19.5288 4.22556
rtoes 8.00055
lfemur -35.4155 2.35361 -11.2277
ltibia 46.902
lfoot -21.3877 -20.6541
ltoes -10.7061
530
root 21.8718 17.722 -8.5395 4.13357 46.7453 -6.40728
lowerback 20.8401 0.888063 4.57904
upperback 4.50593 2.45025 2.12383
thorax -6.64168 1.18245 -0.957075
lowerneck -3.16638 -1.80082 6.78732
upperneck -6.4805 -2.75881 -5.87363
head -1.71523 -1.43285 -3.08346
rclavicle -2.0276e-014 1.27222e-014
rhumerus -54.2162 13.0273 -85.3367
rradius 53.9928
rwrist -7.03505
rhand -26.6384 -16.1916
rfingers 7.12502
rthumb -0.07089 -46.1713
lclavicle -2.0276e-014 1.27222e-014
lhumerus -62.7891 -7.34024 89.1045
lradius 40.2011
lwrist -9.41034
lhand 10.0077 11.3825
lfingers 7.12502
lthumb 35.1336 37.9073
rfemur -7.03272 7.80331 27.6916
rtibia 21.9455
rfoot -18.9731 4.27076
rtoes 7.63226
lfemur -35.7081 2.01183 -11.478
ltibia 44.4137
lfoot -21.3348 -20.0422
ltoes -10.8372
531
root 22.0057 17.7466 -8.42327 4.16913 46.6108 -6.51238
lowerback 20.7146 0.92824 4.64248
upperback 4.45509 2.49992 2.0342
thorax -6.62125 1.20344 -1.09937
lowerneck -3.21851 -1.78121 6.71742
upperneck -6.37984 -2.72576 -5.7451
head -1.66641 -1.41707 -3.02605
rclavicle -4.65156e-014 -5.4467e-014
rhumerus -54.2597 13.1994 -85.1798
rradius 55.1716
rwrist -8.11532
rhand -26.9776 -15.7679
rfingers 7.12502
rthumb -0.398459 -45.7472
lclavicle -4.65156e-014 -5.4467e-014
lhumerus -63.3896 -7.49583 89.213
lradius 40.726
lwrist -8.58161
lhand 10.1296 11.4581
lfingers 7.12502
lthumb 35.2492 37.9556
rfemur -5.7495 7.77628 27.8118
rtibia 20.3341
rfoot -18.3559 4.30117
rtoes 7.36049
lfemur -35.9585 1.6544 -11.6628
ltibia 41.9464
lfoot -21.2522 -19.4361
ltoes -11.039
